<?xml version="1.0" encoding="utf-8"?>
<svg xmlns="http://www.w3.org/2000/svg" viewBox="0 0 30 30" width="480" height="480">
  <path d="M24,2H6C4.895,2,4,2.895,4,4v22c0,1.105,0.895,2,2,2h18c1.105,0,2-0.895,2-2V4C26,2.895,25.105,2,24,2z M7,26 c0-5.374,5.556-4.144,6.222-6.338v-1.535c-0.3-0.163-1.38-1.283-1.47-2.158c-0.236-0.02-0.607-0.257-0.716-1.196 c-0.059-0.504,0.175-0.787,0.316-0.876c0,0-0.352-0.812-0.352-1.619C11,9.879,12.172,8,15,8c1.526,0,2,0.9,2,0.9 c1.365,0,2,1.601,2,3.377c0,0.886-0.352,1.619-0.352,1.619c0.142,0.089,0.375,0.373,0.316,0.876 c-0.109,0.938-0.48,1.176-0.716,1.196c-0.09,0.875-1.17,1.996-1.47,2.158v1.535C17.444,21.856,23,20.626,23,26H7z" fill="#FFFFFF" />
</svg>