<?xml version="1.0" encoding="utf-8"?>
<svg xmlns="http://www.w3.org/2000/svg" viewBox="0 0 32 32" width="512" height="512">
  <path d="M16 3.09375L7.09375 12L2 12L2 18L3.25 18L6.03125 27.28125L6.25 28L25.75 28L25.96875 27.28125L28.75 18L30 18L30 12L24.90625 12 Z M 16 5.9375L22.0625 12L9.9375 12 Z M 4 14L28 14L28 16L27.25 16L27.03125 16.71875L24.25 26L7.75 26L4.96875 16.71875L4.75 16L4 16 Z M 11 17L11 24L13 24L13 17 Z M 15 17L15 24L17 24L17 17 Z M 19 17L19 24L21 24L21 17Z" fill="#FFFFFF" />
</svg>